<svg id="Layer_1" enable-background="new 0 0 509.994 509.994" height="512" viewBox="0 0 509.994 509.994" width="512" xmlns="http://www.w3.org/2000/svg"><path d="m400.239 49.17c-2.714 0-67.521.77-158.962 67.758-.149.108 1.051-.798-66.917 50.611-8.484 6.417-8.446 19.183.049 25.558l190.394 142.878c5.25 3.939 12.364 4.269 17.95.853 4.966-3.036 121.68-75.549 127.218-178.799.016-.285.023-.571.023-.857 0-70.183-38.319-108.002-109.755-108.002z" fill="#e0c8bf"/><path d="m241.277 116.928c-.149.108 1.051-.798-66.917 50.611-8.484 6.417-8.446 19.183.049 25.558l142.408 106.868c46.354-58.604 87.389-133.397 106.392-174.383 13.626-29.389 30.713-47.128 48.042-57.541-17.907-12.518-41.709-18.872-71.012-18.872-2.714.001-67.52.771-158.962 67.759z" fill="#e8d9d4"/><path d="m288.063 141.173h-35.836c-70.677 0-128.176 57.5-128.176 128.176 0 46.873 38.134 85.007 85.007 85.007h122.174c46.873 0 85.007-38.134 85.007-85.007 0-70.677-57.499-128.176-128.176-128.176z" fill="#c69a85"/><path d="m410.969 232.958c-15.722-53.006-64.866-91.785-122.905-91.785h-35.836c-65.862 0-120.271 49.935-127.38 113.931 30.059 8.048 62.97 8.31 94.998-8.089 101.633-52.041 52.632-100.737 164.247-30.563 9.453 5.943 18.4 11.431 26.876 16.506z" fill="#dfb7a4"/><path d="m219.914 205.137h-35.836c-33.381 0-64.934 12.741-88.945 35.894l-34.032 26.827c-8.243 6.498-8.095 19.062.302 25.363l190.394 142.878c5.805 4.357 13.865 4.279 19.594-.3 5.012-4.006 49.218-39.283 53.397-44.042 58.159-61.371 2.018-186.62-104.874-186.62z" fill="#e0c8bf"/><path d="m219.914 205.137h-35.836c-33.381 0-64.934 12.741-88.945 35.894l-34.032 26.827c-8.243 6.498-8.095 19.062.302 25.363l60.685 45.54c11.361-2.504 19.913-7.716 24.007-16.651 23.939-52.243 50.788-85.804 127.654-74.469 13.223 1.95 26.533.933 39.46-2.125-23.393-24.842-56.562-40.379-93.295-40.379z" fill="#e8d9d4"/><path d="m164.012 247.641h-35.836c-70.677 0-128.176 57.499-128.176 128.175 0 46.873 38.134 85.007 85.007 85.007h122.173c46.873 0 85.008-38.134 85.008-85.007 0-70.676-57.5-128.175-128.176-128.175z" fill="#c69a85"/><path d="m5.955 337.182c16.295 3.417 35.149 8 57 14.061 88.676 24.597 177.971 31.071 228.618 12.029-6.325-64.811-61.117-115.631-127.561-115.631h-35.836c-57.218 0-105.794 37.688-122.221 89.541z" fill="#dfb7a4"/><circle cx="355.017" cy="250.262" r="14.563"/><circle cx="85.569" cy="334.738" r="14.563"/><circle cx="184.012" cy="329.953" r="14.563"/><circle cx="120.329" cy="403.193" r="14.563"/><path d="m400.239 49.17c-2.714 0-67.521.77-158.962 67.758-.149.108 1.051-.798-66.917 50.611-14.954 11.317-28.775 27.761-37.828 46.69-15.231 6.082-29.278 15.112-41.4 26.801l-28.128 22.173c-39.883 21.752-67.004 64.075-67.004 112.613 0 46.873 38.134 85.007 85.007 85.007h122.173c21.758 0 41.625-8.226 56.677-21.719 2.69-.417 5.294-1.517 7.533-3.306 13.687-10.94 45.169-36.215 52.007-42.643 8.354-7.429 18.35-23.166 22.375-40.07 13.919-2.41 26.682-8.21 37.415-16.526 9.08-5.633 121.354-77.305 126.784-178.531.016-.285.023-.571.023-.857 0-70.182-38.319-108.001-109.755-108.001zm-193.059 379.654h-122.173c-29.229 0-53.007-23.779-53.007-53.008 0-53.031 43.145-96.176 96.176-96.176h35.836c53.031 0 96.176 43.145 96.176 96.176 0 29.229-23.78 53.008-53.008 53.008zm94.058-58.743c-.623.519-.228.405-9.102 7.743 1.625-69.636-55.394-130.183-128.125-130.183h-23.674c24.824-12.711 42.463-10.504 79.576-10.504 79.788 0 120.054 92.766 81.325 132.944zm-3.193-138.304c9.64-8.992 3.266-25.203-9.921-25.203-6.67 0-12.279 4.489-14.005 10.607-16.473-7.72-34.843-12.044-54.206-12.044-39.451 0-36.725-.018-39.249.048 17.619-19.634 43.168-32.011 71.563-32.011h35.836c53.031 0 96.176 43.145 96.176 96.176 0 23.599-15.503 43.636-36.858 50.481-3.755-35.761-22.276-67.183-49.336-88.054zm118.19 37.75c0-71.811-58.389-128.354-128.171-128.354h-25.71c80.966-58.604 137.418-59.996 137.886-60.002 53.627 0 77.623 23.309 77.754 75.567-2.48 43.058-30.785 82.846-61.759 112.789z"/></svg>